<svg id="Layer_1" data-name="Layer 1" xmlns="http://www.w3.org/2000/svg" width="630" height="288" viewBox="0 0 630 288"><defs><style>.cls-1{fill:#1a1a1a;}.cls-2,.cls-3,.cls-4{fill:none;}.cls-2,.cls-4{stroke:#999;stroke-linecap:square;}.cls-2{stroke-width:0.99906px;}.cls-3{stroke:#ddd;stroke-miterlimit:10;}.cls-4{stroke-width:1.0022px;}.cls-5{fill:#9fce4c;}.cls-6{fill:#fff;}.cls-7{fill:#b9db81;}.cls-8{fill:#76b900;}</style></defs><path class="cls-1" d="M400.30078,251.98438l-.79785-2.25489h-4.35645l-.79882,2.25489h-1.13477l3.66992-9.97364h.89649l3.65625,9.97364Zm-2.95508-8.44629-1.877,5.2666h3.72559Z"/><path class="cls-1" d="M405.07324,251.98438v-8.85254L403.21,244.77051v-1.14844l1.86328-1.61133H406.082v9.97364Z"/><path class="cls-1" d="M412.28223,252.06836a2.62937,2.62937,0,0,1-2.73145-2.74512v-4.65039a2.732,2.732,0,1,1,5.46387,0v4.65039A2.62961,2.62961,0,0,1,412.28223,252.06836Zm1.72363-7.33984a1.73185,1.73185,0,1,0-3.44629,0v4.53808a1.73185,1.73185,0,1,0,3.44629,0Z"/><path class="cls-1" d="M419.4502,252.06836a2.62937,2.62937,0,0,1-2.73145-2.74512v-4.65039a2.732,2.732,0,1,1,5.46387,0v4.65039A2.62961,2.62961,0,0,1,419.4502,252.06836Zm1.72363-7.33984a1.73185,1.73185,0,1,0-3.44629,0v4.53808a1.73185,1.73185,0,1,0,3.44629,0Z"/><path class="cls-1" d="M429.96387,252.06836a2.79761,2.79761,0,0,1-2.94141-2.8291,2.71442,2.71442,0,0,1,1.499-2.42383,2.43731,2.43731,0,0,1-1.30273-2.21289,2.74652,2.74652,0,0,1,5.49121,0,2.42611,2.42611,0,0,1-1.28906,2.21289,2.70286,2.70286,0,0,1,1.48535,2.42383A2.79787,2.79787,0,0,1,429.96387,252.06836Zm0-4.791a1.94732,1.94732,0,1,0,1.93359,1.94727A1.90557,1.90557,0,0,0,429.96387,247.27734Zm0-4.4541a1.69965,1.69965,0,0,0-1.73633,1.793,1.73732,1.73732,0,1,0,3.47363,0A1.69986,1.69986,0,0,0,429.96387,242.82324Z"/><path class="cls-1" d="M437.13184,252.06836a2.62937,2.62937,0,0,1-2.73145-2.74512v-4.65039a2.732,2.732,0,1,1,5.46387,0v4.65039A2.62961,2.62961,0,0,1,437.13184,252.06836Zm1.72363-7.33984a1.73185,1.73185,0,1,0-3.44629,0v4.53808a1.73185,1.73185,0,1,0,3.44629,0Z"/><path class="cls-1" d="M447.8584,250.91992a3.65645,3.65645,0,0,1-5.21094.11231c-.93848-.93848-.93848-1.91895-.93848-4.03418s0-3.09571.93848-4.03418a3.52855,3.52855,0,0,1,2.54883-1.03711,3.39875,3.39875,0,0,1,3.48828,2.9834h-1.06445a2.4532,2.4532,0,0,0-4.14649-1.31641c-.62988.64453-.70019,1.31641-.70019,3.4043,0,2.08691.07031,2.77343.70019,3.418a2.40489,2.40489,0,0,0,1.72266.70019,2.43354,2.43354,0,0,0,1.8916-.85449,2.6149,2.6149,0,0,0,.56055-1.80762v-.75586h-2.45215v-.93847h3.5166v1.583A3.44574,3.44574,0,0,1,447.8584,250.91992Z"/><path class="cls-1" d="M454.92676,251.98438h-3.87988v-9.97364h3.7539a2.6332,2.6332,0,0,1,2.94141,2.66211,2.28454,2.28454,0,0,1-1.47071,2.18457,2.41276,2.41276,0,0,1,1.625,2.36719A2.64225,2.64225,0,0,1,454.92676,251.98438Zm-.21-9.02051h-2.60547v3.46h2.60547c1.10644,0,1.96093-.54688,1.96093-1.73731S455.82324,242.96387,454.7168,242.96387Zm.1123,4.41211h-2.71777v3.65625h2.71777a1.83575,1.83575,0,1,0,0-3.65625Z"/><path class="cls-1" d="M416.66992,256.54785V259.166h3.11817v.67968h-3.11817v3.13868h-.75976v-7.11622h4.418v.67969Z"/><path class="cls-1" d="M424.25879,260.05566h-1.88867v2.92872h-.75977v-7.11622h2.64844a2.09628,2.09628,0,1,1,0,4.1875Zm-.07031-3.50781h-1.81836V259.376h1.81836a1.4171,1.4171,0,1,0,0-2.82813Z"/><path class="cls-1" d="M429.35938,262.98438V256.668l-1.32911,1.16894v-.81933l1.32911-1.14942h.71972v7.11622Z"/><path class="cls-1" d="M434.5293,263.044a1.89253,1.89253,0,0,1-1.9795-2.04883A3.51,3.51,0,0,1,433,259.39648l1.749-3.52832h.73926l-1.58887,3.19825a1.79786,1.79786,0,0,1,.75-.14942,1.85387,1.85387,0,0,1,1.84864,2.01856A1.94341,1.94341,0,0,1,434.5293,263.044Zm-.00977-3.51758a1.45186,1.45186,0,1,0,1.25879,1.43945A1.285,1.285,0,0,0,434.51953,259.52637Z"/><path class="cls-1" d="M302.43164,251.98438l-.79834-2.25489h-4.35644l-.79834,2.25489h-1.13477l3.66992-9.97364h.89649l3.65625,9.97364Zm-2.95557-8.44629-1.87695,5.2666h3.72608Z"/><path class="cls-1" d="M307.20361,251.98438v-8.85254l-1.86279,1.63867v-1.14844l1.86279-1.61133h1.00879v9.97364Z"/><path class="cls-1" d="M314.41309,252.06836a2.62937,2.62937,0,0,1-2.73145-2.74512v-4.65039a2.732,2.732,0,1,1,5.46387,0v4.65039A2.62988,2.62988,0,0,1,314.41309,252.06836Zm1.72363-7.33984a1.73185,1.73185,0,1,0-3.44629,0v4.53808a1.73185,1.73185,0,1,0,3.44629,0Z"/><path class="cls-1" d="M321.58105,252.06836a2.62937,2.62937,0,0,1-2.73144-2.74512v-4.65039a2.732,2.732,0,1,1,5.46387,0v4.65039A2.62961,2.62961,0,0,1,321.58105,252.06836Zm1.72364-7.33984a1.73185,1.73185,0,1,0-3.44629,0v4.53808a1.73185,1.73185,0,1,0,3.44629,0Z"/><path class="cls-1" d="M333.97266,250.40137v1.583h-.99512v-1.583H329v-.91016l3.59961-7.48047h1.07812l-3.59961,7.48047h2.89942v-2.83008h.99512v2.83008h1.21777v.91016Z"/><path class="cls-1" d="M339.2627,252.06836a2.62937,2.62937,0,0,1-2.73145-2.74512v-4.65039a2.732,2.732,0,1,1,5.46387,0v4.65039A2.62961,2.62961,0,0,1,339.2627,252.06836Zm1.72363-7.33984a1.73185,1.73185,0,1,0-3.44629,0v4.53808a1.73185,1.73185,0,1,0,3.44629,0Z"/><path class="cls-1" d="M349.98926,250.91992a3.65645,3.65645,0,0,1-5.21094.11231c-.93848-.93848-.93848-1.91895-.93848-4.03418s0-3.09571.93848-4.03418a3.52855,3.52855,0,0,1,2.54883-1.03711,3.39875,3.39875,0,0,1,3.48828,2.9834H349.751a2.4532,2.4532,0,0,0-4.14649-1.31641c-.62988.64453-.70019,1.31641-.70019,3.4043,0,2.08691.07031,2.77343.70019,3.418a2.40489,2.40489,0,0,0,1.72266.70019,2.43354,2.43354,0,0,0,1.8916-.85449,2.6149,2.6149,0,0,0,.56055-1.80762v-.75586h-2.45215v-.93847h3.5166v1.583A3.44574,3.44574,0,0,1,349.98926,250.91992Z"/><path class="cls-1" d="M357.05762,251.98438h-3.87989v-9.97364h3.75391a2.6332,2.6332,0,0,1,2.94141,2.66211,2.28454,2.28454,0,0,1-1.47071,2.18457,2.41276,2.41276,0,0,1,1.625,2.36719A2.64225,2.64225,0,0,1,357.05762,251.98438Zm-.21-9.02051h-2.60547v3.46h2.60547c1.10644,0,1.96093-.54688,1.96093-1.73731S357.9541,242.96387,356.84766,242.96387Zm.1123,4.41211h-2.71777v3.65625H356.96a1.83575,1.83575,0,1,0,0-3.65625Z"/><path class="cls-1" d="M318.80078,256.54785V259.166H321.919v.67968h-3.11817v3.13868H318.041v-7.11622h4.418v.67969Z"/><path class="cls-1" d="M326.38965,260.05566H324.501v2.92872h-.75977v-7.11622h2.64844a2.09628,2.09628,0,1,1,0,4.1875Zm-.07031-3.50781H324.501V259.376h1.81836a1.4171,1.4171,0,1,0,0-2.82813Z"/><path class="cls-1" d="M331.49023,262.98438V256.668l-1.3291,1.16894v-.81933l1.3291-1.14942H332.21v7.11622Z"/><path class="cls-1" d="M336.66016,263.044a1.89253,1.89253,0,0,1-1.9795-2.04883,3.50982,3.50982,0,0,1,.4502-1.59864l1.749-3.52832h.73926l-1.58887,3.19825a1.79786,1.79786,0,0,1,.75-.14942,1.85387,1.85387,0,0,1,1.84864,2.01856A1.94341,1.94341,0,0,1,336.66016,263.044Zm-.00977-3.51758a1.45186,1.45186,0,1,0,1.25879,1.43945A1.285,1.285,0,0,0,336.65039,259.52637Z"/><path class="cls-1" d="M11.28564,233.4707a2.06534,2.06534,0,0,1-2.1455-2.15625v-3.65332a2.06534,2.06534,0,0,1,2.1455-2.15625,2.065,2.065,0,0,1,2.145,2.15625v3.65332A2.065,2.065,0,0,1,11.28564,233.4707Zm1.353-5.76562a1.36009,1.36009,0,1,0-2.70654,0v3.56445a1.36018,1.36018,0,1,0,2.70654,0Z"/><path class="cls-1" d="M5.55225,159.40869v-6.95312l-1.46338,1.28711v-.90235l1.46338-1.26465h.792v7.833Z"/><path class="cls-1" d="M13.02344,159.40869l-1.90332-3.28906-1.91407,3.28906H8.25977l2.39843-4.01562-2.24463-3.81739h.96827l1.73828,3.0918,1.73828-3.0918h.96826l-2.25537,3.81739,2.42041,4.01562Z"/><path class="cls-1" d="M2.74805,85.41211V84.708l3.09131-3.92774A1.78662,1.78662,0,0,0,6.27979,79.625a1.28913,1.28913,0,0,0-1.36426-1.4082,1.27956,1.27956,0,0,0-1.36426,1.41992h-.792a2.03617,2.03617,0,0,1,2.15625-2.124A2.00984,2.00984,0,0,1,7.07178,79.625a2.34651,2.34651,0,0,1-.627,1.585L3.70508,84.708h3.3667v.7041Z"/><path class="cls-1" d="M13.02344,85.41211l-1.90332-3.28906L9.20605,85.41211H8.25977l2.39843-4.01563L8.41357,77.5791h.96827l1.73828,3.0918,1.73828-3.0918h.96826l-2.25537,3.81738,2.42041,4.01563Z"/><path class="cls-1" d="M5.13428,11.49316A2.0813,2.0813,0,0,1,2.835,9.4248h.79248a1.3828,1.3828,0,0,0,1.50684,1.36426A1.43491,1.43491,0,0,0,6.6416,9.27051a1.3612,1.3612,0,0,0-1.54-1.51758h-.165V7.05957h.165a1.26066,1.26066,0,0,0,1.397-1.41895A1.31166,1.31166,0,0,0,5.13428,4.21,1.32856,1.32856,0,0,0,3.72607,5.51953h-.792a2.083,2.083,0,0,1,2.2002-2.01367A2.02942,2.02942,0,0,1,7.29053,5.62891,1.75577,1.75577,0,0,1,6.23438,7.36719,1.83576,1.83576,0,0,1,7.43359,9.28125,2.12417,2.12417,0,0,1,5.13428,11.49316Z"/><path class="cls-1" d="M13.0293,11.416,11.126,8.127,9.21191,11.416H8.26562l2.39844-4.01563L8.41943,3.583H9.3877L11.126,6.6748,12.86426,3.583h.96826L11.57715,7.40039,13.99756,11.416Z"/><path class="cls-1" d="M209.31836,277.32129v7.085h-.83643v-7.085h-2.26611v-.748h5.36865v.748Z"/><path class="cls-1" d="M213.04248,277.45312v-.89062h.89111v.89062Zm.04395,6.95313v-5.41309h.792v5.41309Z"/><path class="cls-1" d="M222.773,284.40625v-3.333a1.34406,1.34406,0,1,0-2.68457-.08886v3.42187h-.792v-3.333a1.26013,1.26013,0,0,0-1.33155-1.4414,1.28069,1.28069,0,0,0-1.353,1.4414v3.333h-.792v-5.41309h.792v.59473a1.97377,1.97377,0,0,1,1.52929-.66016,1.78452,1.78452,0,0,1,1.66114.90137,2.07268,2.07268,0,0,1,1.78222-.90137,1.9706,1.9706,0,0,1,1.39746.50586,2.014,2.014,0,0,1,.583,1.50684v3.46582Z"/><path class="cls-1" d="M226.0127,281.90918c0,1.1875.561,1.87012,1.59521,1.87012a1.77787,1.77787,0,0,0,1.41895-.61621l.53906.47265a2.477,2.477,0,0,1-1.98.83692c-1.43018,0-2.36573-.8584-2.36573-2.77246,0-1.75.84717-2.77247,2.22266-2.77247,1.397,0,2.22217,1.01172,2.22217,2.61817v.36328Zm2.69531-1.49609a1.38983,1.38983,0,0,0-2.53028,0,2.273,2.273,0,0,0-.165.90136h2.86035A2.27321,2.27321,0,0,0,228.708,280.41309Z"/><path class="cls-1" d="M237.14453,281.18262h-2.0791v3.22363h-.83594v-7.833h2.915a2.30746,2.30746,0,1,1,0,4.60938Zm-.07666-3.86133h-2.00244v3.11328h2.00244a1.55993,1.55993,0,1,0,0-3.11328Z"/><path class="cls-1" d="M241.499,281.90918c0,1.1875.561,1.87012,1.59522,1.87012a1.77784,1.77784,0,0,0,1.41894-.61621l.53907.47265a2.477,2.477,0,0,1-1.98.83692c-1.43018,0-2.36573-.8584-2.36573-2.77246,0-1.75.84717-2.77247,2.22266-2.77247,1.397,0,2.22217,1.01172,2.22217,2.61817v.36328Zm2.69532-1.49609a1.38983,1.38983,0,0,0-2.53028,0,2.27321,2.27321,0,0,0-.165.90136h2.86036A2.27321,2.27321,0,0,0,244.19434,280.41309Z"/><path class="cls-1" d="M249.84717,280.02734a1.13183,1.13183,0,0,0-.93506-.3955,1.322,1.322,0,0,0-1.29834,1.45214v3.32227h-.792v-5.41309h.792v.66016a1.8174,1.8174,0,0,1,1.51807-.72559,1.6687,1.6687,0,0,1,1.29834.50586Z"/><path class="cls-1" d="M256.04,284.40625v-6.95313l-1.46338,1.28711v-.90234l1.46338-1.26465h.792v7.833Z"/><path class="cls-1" d="M259.40918,285.99023v-2.55175h.96777v1.68261Z"/><path class="cls-1" d="M264.20752,284.47266a2.06535,2.06535,0,0,1-2.14551-2.15625v-3.65332a2.14529,2.14529,0,1,1,4.29053,0v3.65332A2.065,2.065,0,0,1,264.20752,284.47266Zm1.353-5.76563a1.36009,1.36009,0,1,0-2.70655,0v3.56445a1.36018,1.36018,0,1,0,2.70655,0Z"/><path class="cls-1" d="M270.20117,284.47266a2.06535,2.06535,0,0,1-2.14551-2.15625v-3.65332a2.14529,2.14529,0,1,1,4.29053,0v3.65332A2.065,2.065,0,0,1,270.20117,284.47266Zm1.353-5.76563a1.36009,1.36009,0,1,0-2.70654,0v3.56445a1.36018,1.36018,0,1,0,2.70654,0Z"/><path class="cls-1" d="M276.19482,284.47266a2.06534,2.06534,0,0,1-2.1455-2.15625v-3.65332a2.14529,2.14529,0,1,1,4.29052,0v3.65332A2.065,2.065,0,0,1,276.19482,284.47266Zm1.353-5.76563a1.36009,1.36009,0,1,0-2.70654,0v3.56445a1.36018,1.36018,0,1,0,2.70654,0Z"/><path class="cls-1" d="M282.9375,284.40625v-7.833h.83594v7.833Z"/><path class="cls-1" d="M287.43994,284.40625a1.32756,1.32756,0,0,1-1.38623-1.45215v-3.32226h-.68213v-.60547h.68213V277.332h.792v1.69434H288.001v.60547H286.8457v3.2998c0,.49512.23145.793.73731.793h.418v.68164Z"/><path class="cls-1" d="M289.9585,281.90918c0,1.1875.561,1.87012,1.59521,1.87012a1.77786,1.77786,0,0,0,1.41895-.61621l.53906.47265a2.477,2.477,0,0,1-1.98.83692c-1.43018,0-2.36572-.8584-2.36572-2.77246,0-1.75.84716-2.77247,2.22265-2.77247,1.397,0,2.22217,1.01172,2.22217,2.61817v.36328Zm2.69531-1.49609a1.38982,1.38982,0,0,0-2.53027,0,2.27285,2.27285,0,0,0-.165.90136h2.86035A2.273,2.273,0,0,0,292.65381,280.41309Z"/><path class="cls-1" d="M298.31006,280.02734a1.13183,1.13183,0,0,0-.93506-.3955,1.322,1.322,0,0,0-1.29834,1.45214v3.32227h-.792v-5.41309h.792v.66016a1.81741,1.81741,0,0,1,1.51807-.72559,1.6687,1.6687,0,0,1,1.29834.50586Z"/><path class="cls-1" d="M303.292,284.40625v-.5166a1.90224,1.90224,0,0,1-1.562.583,1.92944,1.92944,0,0,1-1.5293-.49512,1.56158,1.56158,0,0,1-.40722-1.10059c0-.94629.66015-1.5625,1.87011-1.5625H303.292v-.5166c0-.792-.396-1.18847-1.38623-1.18847a1.42138,1.42138,0,0,0-1.36426.61621l-.53906-.49512a2.09824,2.09824,0,0,1,1.91455-.80274c1.45215,0,2.167.627,2.167,1.80372v3.6748Zm0-2.49707h-1.51806c-.81446,0-1.21045.33008-1.21045.957s.38525.92383,1.24316.92383a1.58255,1.58255,0,0,0,1.21045-.36328,1.24841,1.24841,0,0,0,.2749-.93457Z"/><path class="cls-1" d="M307.49658,284.40625a1.32756,1.32756,0,0,1-1.38623-1.45215v-3.32226h-.68213v-.60547h.68213V277.332h.792v1.69434h1.15528v.60547h-1.15528v3.2998c0,.49512.23145.793.73731.793h.418v.68164Z"/><path class="cls-1" d="M309.54688,277.45312v-.89062h.89111v.89062Zm.04394,6.95313v-5.41309h.792v5.41309Z"/><path class="cls-1" d="M315.83057,283.85645a2.26072,2.26072,0,0,1-3.10254,0,3.85151,3.85151,0,0,1,0-4.3125,2.26069,2.26069,0,0,1,3.10254,0,3.85393,3.85393,0,0,1,0,4.3125Zm-.561-3.82911a1.389,1.389,0,0,0-.99023-.3955,1.36293,1.36293,0,0,0-.9795.3955,3.39859,3.39859,0,0,0,0,3.34473,1.36374,1.36374,0,0,0,.9795.39648,1.38985,1.38985,0,0,0,.99023-.39648,3.47624,3.47624,0,0,0,0-3.34473Z"/><path class="cls-1" d="M321.66406,284.40625v-3.333a1.25979,1.25979,0,0,0-1.33105-1.4414,1.273,1.273,0,0,0-1.3418,1.4414v3.333h-.792v-5.41309h.792v.59473a1.94935,1.94935,0,0,1,1.51758-.66016,1.89664,1.89664,0,0,1,1.38672.50586,1.99987,1.99987,0,0,1,.56054,1.50684v3.46582Z"/><path class="cls-1" d="M326.13867,284.47266a2.98054,2.98054,0,0,1-2.22168-.78125l.52735-.52832a2.21551,2.21551,0,0,0,1.68359.62695c.8916,0,1.44141-.31934,1.44141-.957,0-.47266-.27539-.73731-.90235-.792l-.89062-.07715c-1.05664-.08789-1.61719-.56153-1.61719-1.45215,0-.99024.83594-1.584,1.99121-1.584a3.06041,3.06041,0,0,1,1.94727.583l-.51758.5166a2.30959,2.30959,0,0,0-1.44141-.42871c-.792,0-1.21.34082-1.21.89063,0,.46289.26367.7373.94629.793l.86914.07617c.94629.08887,1.59473.45117,1.59473,1.46387C328.33887,283.86719,327.44824,284.47266,326.13867,284.47266Z"/><path class="cls-1" d="M332.47461,281.80957v-.73633h3.01465v.73633Z"/><path class="cls-1" d="M344.69629,284.40625l-1.78223-3.47656H341.0332v3.47656h-.83691v-7.833h3.00391a2.11866,2.11866,0,0,1,2.32128,2.17774,2.03238,2.03238,0,0,1-1.70507,2.10156l1.85937,3.55371Zm-1.57324-7.085H341.0332v2.87109h2.08985a1.4407,1.4407,0,1,0,0-2.87109Z"/><path class="cls-1" d="M347.59766,281.90918c0,1.1875.56054,1.87012,1.59472,1.87012a1.7798,1.7798,0,0,0,1.41992-.61621l.53907.47265a2.47937,2.47937,0,0,1-1.98047.83692c-1.43067,0-2.36524-.8584-2.36524-2.77246,0-1.75.84668-2.77247,2.22168-2.77247,1.39746,0,2.22266,1.01172,2.22266,2.61817v.36328Zm2.69531-1.49609a1.38982,1.38982,0,0,0-2.53027,0,2.26421,2.26421,0,0,0-.165.90136H350.458A2.28174,2.28174,0,0,0,350.293,280.41309Z"/><path class="cls-1" d="M354.27148,284.40625a1.29019,1.29019,0,0,1-1.376-1.44141v-6.3916h.792v6.3584c0,.52832.17676.793.72656.793h.42871v.68164Z"/><path class="cls-1" d="M359.47949,284.40625v-.5166a1.90327,1.90327,0,0,1-1.5625.583,1.93142,1.93142,0,0,1-1.52929-.49512,1.56306,1.56306,0,0,1-.40625-1.10059c0-.94629.65917-1.5625,1.87011-1.5625h1.62793v-.5166c0-.792-.39648-1.18847-1.38574-1.18847a1.42,1.42,0,0,0-1.36426.61621l-.53906-.49512a2.09687,2.09687,0,0,1,1.91406-.80274c1.45215,0,2.167.627,2.167,1.80372v3.6748Zm0-2.49707h-1.51855c-.81348,0-1.21.33008-1.21.957s.38476.92383,1.24316.92383a1.58141,1.58141,0,0,0,1.21-.36328,1.24628,1.24628,0,0,0,.27539-.93457Z"/><path class="cls-1" d="M363.68555,284.40625a1.32768,1.32768,0,0,1-1.38672-1.45215v-3.32226h-.68164v-.60547h.68164V277.332h.792v1.69434h1.15527v.60547h-1.15527v3.2998c0,.49512.23145.793.7373.793h.418v.68164Z"/><path class="cls-1" d="M365.73535,277.45312v-.89062h.89063v.89062Zm.04395,6.95313v-5.41309h.792v5.41309Z"/><path class="cls-1" d="M370.55859,284.40625h-.7041l-1.98047-5.41309h.8584l1.47363,4.34571,1.48536-4.34571h.85839Z"/><path class="cls-1" d="M374.18652,281.90918c0,1.1875.56055,1.87012,1.59473,1.87012a1.77981,1.77981,0,0,0,1.41992-.61621l.53906.47265a2.47936,2.47936,0,0,1-1.98046.83692c-1.43067,0-2.36524-.8584-2.36524-2.77246,0-1.75.84668-2.77247,2.22168-2.77247,1.39746,0,2.22266,1.01172,2.22266,2.61817v.36328Zm2.69532-1.49609a1.38983,1.38983,0,0,0-2.53028,0,2.26456,2.26456,0,0,0-.165.90136h2.86036A2.28192,2.28192,0,0,0,376.88184,280.41309Z"/><path class="cls-1" d="M385.31836,281.18262h-2.0791v3.22363h-.83692v-7.833h2.916a2.30743,2.30743,0,1,1,0,4.60938Zm-.07715-3.86133h-2.002v3.11328h2.002a1.55993,1.55993,0,1,0,0-3.11328Z"/><path class="cls-1" d="M389.67285,281.90918c0,1.1875.56055,1.87012,1.59473,1.87012a1.77981,1.77981,0,0,0,1.41992-.61621l.53906.47265a2.47937,2.47937,0,0,1-1.98047.83692c-1.43066,0-2.36523-.8584-2.36523-2.77246,0-1.75.84668-2.77247,2.22168-2.77247,1.39746,0,2.22266,1.01172,2.22266,2.61817v.36328Zm2.69531-1.49609a1.38982,1.38982,0,0,0-2.53027,0,2.26456,2.26456,0,0,0-.165.90136h2.86035A2.28157,2.28157,0,0,0,392.36816,280.41309Z"/><path class="cls-1" d="M398.02148,280.02734a1.13275,1.13275,0,0,0-.93554-.3955,1.32168,1.32168,0,0,0-1.29785,1.45214v3.32227h-.792v-5.41309h.792v.66016a1.81833,1.81833,0,0,1,1.51855-.72559,1.66765,1.66765,0,0,1,1.29785.50586Z"/><path class="cls-1" d="M401.085,279.63184v4.77441h-.792v-4.77441h-.69336v-.60547h.69336v-1.02344a1.31926,1.31926,0,0,1,1.375-1.45215h.57226v.68262h-.42871c-.50586,0-.72656.29687-.72656.792v1.001h1.15527v.60547Z"/><path class="cls-1" d="M407.05664,283.85645a2.26072,2.26072,0,0,1-3.10254,0,3.85156,3.85156,0,0,1,0-4.3125,2.26069,2.26069,0,0,1,3.10254,0,3.85151,3.85151,0,0,1,0,4.3125Zm-.56152-3.82911a1.38655,1.38655,0,0,0-.99024-.3955,1.36063,1.36063,0,0,0-.97851.3955,3.3953,3.3953,0,0,0,0,3.34473,1.36144,1.36144,0,0,0,.97851.39648,1.38736,1.38736,0,0,0,.99024-.39648,3.46936,3.46936,0,0,0,0-3.34473Z"/><path class="cls-1" d="M412.45117,280.02734a1.13277,1.13277,0,0,0-.93555-.3955,1.32168,1.32168,0,0,0-1.29785,1.45214v3.32227h-.792v-5.41309h.792v.66016a1.81836,1.81836,0,0,1,1.51856-.72559,1.66767,1.66767,0,0,1,1.29785.50586Z"/><path class="cls-1" d="M421.24609,284.40625v-3.333a1.34406,1.34406,0,1,0-2.68457-.08886v3.42187h-.792v-3.333a1.26023,1.26023,0,0,0-1.331-1.4414,1.28081,1.28081,0,0,0-1.35352,1.4414v3.333h-.792v-5.41309h.792v.59473a1.97238,1.97238,0,0,1,1.5293-.66016,1.78451,1.78451,0,0,1,1.66113.90137,2.07271,2.07271,0,0,1,1.78223-.90137,1.97063,1.97063,0,0,1,1.39746.50586,2.014,2.014,0,0,1,.583,1.50684v3.46582Z"/><path class="cls-1" d="M427.05078,284.40625v-.5166a1.90327,1.90327,0,0,1-1.5625.583,1.93144,1.93144,0,0,1-1.5293-.49512,1.5631,1.5631,0,0,1-.40625-1.10059c0-.94629.65918-1.5625,1.87012-1.5625h1.62793v-.5166c0-.792-.39648-1.18847-1.38574-1.18847a1.42,1.42,0,0,0-1.36426.61621l-.53906-.49512a2.09687,2.09687,0,0,1,1.91406-.80274c1.45215,0,2.167.627,2.167,1.80372v3.6748Zm0-2.49707h-1.51855c-.81348,0-1.21.33008-1.21.957s.38476.92383,1.24316.92383a1.58141,1.58141,0,0,0,1.21-.36328,1.24628,1.24628,0,0,0,.27539-.93457Z"/><path class="cls-1" d="M433.21875,284.40625v-3.333a1.3407,1.3407,0,1,0-2.67383,0v3.333h-.792v-5.41309h.792v.59473a1.95,1.95,0,0,1,1.51856-.66016,1.89582,1.89582,0,0,1,1.38574.50586,2.00047,2.00047,0,0,1,.56152,1.50684v3.46582Z"/><path class="cls-1" d="M438.03613,284.47266c-1.36425,0-2.39843-.92481-2.39843-2.77246,0-1.84864,1.03418-2.77247,2.39843-2.77247a2.14483,2.14483,0,0,1,1.78223.80274l-.53906.50586a1.48578,1.48578,0,0,0-1.24317-.60449,1.46746,1.46746,0,0,0-1.25488.61621,3.17488,3.17488,0,0,0,0,2.90429,1.46746,1.46746,0,0,0,1.25488.61621,1.49825,1.49825,0,0,0,1.24317-.61621l.53906.51661A2.143,2.143,0,0,1,438.03613,284.47266Z"/><path class="cls-1" d="M441.76953,281.90918c0,1.1875.56055,1.87012,1.59473,1.87012a1.77981,1.77981,0,0,0,1.41992-.61621l.53906.47265a2.47937,2.47937,0,0,1-1.98047.83692c-1.43066,0-2.36523-.8584-2.36523-2.77246,0-1.75.84668-2.77247,2.22168-2.77247,1.39746,0,2.22266,1.01172,2.22266,2.61817v.36328Zm2.69531-1.49609a1.38982,1.38982,0,0,0-2.53027,0,2.26456,2.26456,0,0,0-.165.90136h2.86035A2.28157,2.28157,0,0,0,444.46484,280.41309Z"/><line class="cls-2" x1="23.5" y1="230.5" x2="628.5" y2="230.5"/><line class="cls-3" x1="24" y1="156.5" x2="628" y2="156.5"/><line class="cls-3" x1="24" y1="81.5" x2="628" y2="81.5"/><line class="cls-3" x1="24" y1="7.5" x2="628" y2="7.5"/><line class="cls-4" x1="23.5" y1="230.5" x2="23.5" y2="7.5"/><polyline class="cls-5" points="296 156.011 296 230 356 230 356 156.011 296 156.011"/><path class="cls-6" d="M321.98047,175.42236v-8.41894l-1.94727,1.709v-1.583l1.94727-1.68066h1.42871v9.97363Z"/><path class="cls-6" d="M331.67676,175.42236l-2.1709-3.82422-2.15723,3.82422h-1.7373l3.082-5.1123-2.88574-4.86133h1.7373l1.96094,3.57227,1.97461-3.57227h1.7373l-2.88574,4.86133,3.0957,5.1123Z"/><path class="cls-1" d="M216.64111,251.98438h-.86865l-3.27783-9.97364h1.12109l2.59131,8.06836,2.59131-8.06836H219.919Z"/><path class="cls-1" d="M223.50049,251.98438v-8.85254l-1.86279,1.63867v-1.14844l1.86279-1.61133h1.00879v9.97364Z"/><path class="cls-1" d="M230.71045,252.06836a2.62937,2.62937,0,0,1-2.73145-2.74512v-4.65039a2.73148,2.73148,0,1,1,5.46289,0v4.65039A2.6291,2.6291,0,0,1,230.71045,252.06836Zm1.72314-7.33984a1.73163,1.73163,0,1,0-3.4458,0v4.53808a1.73163,1.73163,0,1,0,3.4458,0Z"/><path class="cls-1" d="M237.87793,252.06836a2.62937,2.62937,0,0,1-2.73145-2.74512v-4.65039a2.73173,2.73173,0,1,1,5.46338,0v4.65039A2.62948,2.62948,0,0,1,237.87793,252.06836Zm1.72314-7.33984a1.73163,1.73163,0,1,0-3.4458,0v4.53808a1.73163,1.73163,0,1,0,3.4458,0Z"/><path class="cls-1" d="M218.80078,256.54785V259.166H221.919v.67968h-3.11817v3.13868H218.041v-7.11622h4.41748v.67969Z"/><path class="cls-1" d="M226.38916,260.05566h-1.88867v2.92872h-.75977v-7.11622h2.64844a2.09628,2.09628,0,1,1,0,4.1875Zm-.06982-3.50781h-1.81885V259.376h1.81885a1.41707,1.41707,0,1,0,0-2.82813Z"/><path class="cls-1" d="M231.49023,262.98438V256.668l-1.3291,1.16894v-.81933l1.3291-1.14942H232.21v7.11622Z"/><path class="cls-1" d="M236.65967,263.044a1.89215,1.89215,0,0,1-1.979-2.04883,3.50384,3.50384,0,0,1,.4502-1.59864l1.749-3.52832h.73926l-1.58887,3.19825a1.79716,1.79716,0,0,1,.74952-.14942,1.85424,1.85424,0,0,1,1.84912,2.01856A1.94352,1.94352,0,0,1,236.65967,263.044Zm-.00977-3.51758a1.45178,1.45178,0,1,0,1.25928,1.43945A1.28532,1.28532,0,0,0,236.6499,259.52637Z"/><polyline class="cls-7" points="196 177.933 196 230 256 230 256 177.933 196 177.933"/><path class="cls-6" d="M216.38672,195.89453a2.74557,2.74557,0,0,1-2.8711-2.85742v-4.42676a2.8785,2.8785,0,0,1,5.75684,0v4.42676A2.75668,2.75668,0,0,1,216.38672,195.89453Zm1.457-7.24219a1.45916,1.45916,0,1,0-2.89941,0v4.34278a1.45916,1.45916,0,1,0,2.89941,0Z"/><path class="cls-6" d="M222.00879,195.85254a1.02781,1.02781,0,0,1-1.02246-1.02246,1.02255,1.02255,0,0,1,2.04492,0A1.02781,1.02781,0,0,1,222.00879,195.85254Z"/><path class="cls-6" d="M226.86328,195.81055h-1.541l3.34765-8.69825h-3.04v1.56836h-1.37207v-2.84375h5.93848v1.27539Z"/><path class="cls-6" d="M237.45215,195.81055l-2.1709-3.82422-2.15723,3.82422h-1.7373l3.082-5.11231-2.88574-4.86133h1.7373l1.96094,3.57227,1.97461-3.57227h1.7373l-2.88574,4.86133,3.0957,5.11231Z"/><polyline class="cls-8" points="396 7.048 396 231 456 231 456 7.048 396 7.048"/><path class="cls-6" d="M421.88672,26.39355a2.77458,2.77458,0,0,1-3.05371-2.80078h1.42969a1.501,1.501,0,0,0,1.624,1.5127,1.544,1.544,0,0,0,1.625-1.65332,1.49154,1.49154,0,0,0-1.667-1.63867h-.23828V20.56641h.23828a1.365,1.365,0,0,0,1.51269-1.5127,1.48542,1.48542,0,0,0-2.96875-.11133H418.96a2.76661,2.76661,0,0,1,2.92676-2.71777,2.7228,2.7228,0,0,1,2.90039,2.78711A2.19117,2.19117,0,0,1,423.54,21.1416a2.34121,2.34121,0,0,1,1.40039,2.35254A2.80306,2.80306,0,0,1,421.88672,26.39355Z"/><path class="cls-6" d="M431.86621,26.2959l-2.1709-3.82422-2.15722,3.82422h-1.73731l3.082-5.11231-2.88574-4.86132h1.73731l1.96093,3.57226,1.97461-3.57226h1.73731l-2.88575,4.86132,3.09571,5.11231Z"/></svg>